PathFileType	4	(X/Y/Z)	C:/Users/opensim2020/Desktop/walking_exp_matlab/subject01_walking11_straight_03.trc	
DataRate	CameraRate	NumFrames	NumMarkers	Units	OrigDataRate	OrigDataStartFrame	OrigNumFrames	
100.00	100.00	5	44	mm	100.00	3081	338	
Frame#	Time	LFHD			RFHD			LBHD			RBHD			C7			T10			CLAV			STRN			RBAK			LSHO			LUPA			LELB			LFRM			LWRA			LWRB			LFIN			RSHO			RUPA			RELB			RFRM			RWRA			RWRB			RFIN			LASI			RASI			LPSI			RPSI			LTHI			LKNE			LTIB			LANK			LHEE			LTOE			RTHI			RKNE			RTIB			RANK			RHEE			RTOE			*39			*40			*41			*42			*43			
		X1	Y1	Z1	X2	Y2	Z2	X3	Y3	Z3	X4	Y4	Z4	X5	Y5	Z5	X6	Y6	Z6	X7	Y7	Z7	X8	Y8	Z8	X9	Y9	Z9	X10	Y10	Z10	X11	Y11	Z11	X12	Y12	Z12	X13	Y13	Z13	X14	Y14	Z14	X15	Y15	Z15	X16	Y16	Z16	X17	Y17	Z17	X18	Y18	Z18	X19	Y19	Z19	X20	Y20	Z20	X21	Y21	Z21	X22	Y22	Z22	X23	Y23	Z23	X24	Y24	Z24	X25	Y25	Z25	X26	Y26	Z26	X27	Y27	Z27	X28	Y28	Z28	X29	Y29	Z29	X30	Y30	Z30	X31	Y31	Z31	X32	Y32	Z32	X33	Y33	Z33	X34	Y34	Z34	X35	Y35	Z35	X36	Y36	Z36	X37	Y37	Z37	X38	Y38	Z38	X39	Y39	Z39	X40	Y40	Z40	X41	Y41	Z41	X42	Y42	Z42	X43	Y43	Z43	X44	Y44	Z44	

254	2.530	1358.95740	652.11859	1672.08337	1463.74121	696.81677	1679.19653	1400.96997	541.38147	1631.07178	1512.16064	585.82843	1637.67236	1434.09204	516.19006	1430.40601	1447.01233	491.07562	1136.44092	1424.72864	661.51776	1369.43726	1420.71863	711.25085	1215.62183	1517.65369	471.19479	1235.64709	1268.15308	590.85999	1396.51111	1191.01965	555.19067	1209.61426	1197.19202	542.48322	1059.52490	1170.87122	575.68561	951.27679	1185.17542	652.86816	833.61731	1163.76331	596.40637	830.80316	1153.37366	642.68555	758.86877	1578.75720	604.39941	1396.43665	1688.70508	568.76483	1196.61658	1693.63501	581.30389	1071.46667	1722.87219	630.72894	960.41614	1699.61523	730.03186	860.38269	1741.11963	689.48297	853.55414	1734.85437	739.53284	782.22266	1340.09021	668.89325	934.07605	1555.79663	667.34393	931.13715	1388.98572	481.20673	946.27472	1534.37097	482.57272	950.65814	1282.97192	686.56018	610.28003	1302.42725	704.08167	478.32513	1292.82886	677.35248	289.79495	1347.91516	679.06641	73.01276	1402.77344	638.05261	42.54085	1334.24036	825.92151	40.72669	1616.93909	593.36737	597.77161	1601.99487	580.74097	437.78748	1610.93555	446.13995	320.59610	1572.62000	318.77951	153.81044	1521.84241	259.75711	149.84500	1558.53723	403.51682	36.87300	1443.77710	679.50500	1712.61523	-3101.99854	1973.06335	1023.41724	-3140.66675	2012.46411	1022.08490						 
255	2.540	1356.57532	658.49646	1672.54895	1461.40344	703.18958	1679.66455	1398.63110	547.74847	1631.57300	1509.83289	592.20520	1638.20422	1431.77344	522.49182	1430.91748	1444.57935	496.99118	1137.05884	1422.50647	667.71796	1369.89954	1418.46655	717.37201	1216.02258	1515.21252	477.17377	1236.26965	1265.98657	597.24060	1397.07275	1188.58716	562.08716	1210.21484	1194.67542	550.00568	1059.80273	1168.55859	584.46442	951.85638	1183.50769	662.77490	835.10791	1161.77808	606.49365	831.67102	1151.88501	653.63770	760.14484	1576.66187	610.61914	1397.10913	1686.43799	574.42841	1197.36316	1691.58826	586.44641	1072.32349	1721.11646	634.74756	960.96051	1698.29443	733.00513	859.79828	1739.96179	692.40826	853.65680	1733.65552	741.60144	781.49500	1338.12451	674.84564	934.34460	1553.63110	672.90717	931.85400	1386.86560	486.83566	946.75641	1532.33740	488.34665	950.70502	1281.50916	690.19501	609.97113	1301.14490	706.95502	478.02393	1292.53345	678.31555	289.49036	1347.98511	679.22314	72.93407	1402.87439	638.14050	42.67485	1334.24072	826.13892	40.42358	1616.38928	604.87207	597.76062	1601.38464	594.20544	437.78656	1610.27808	457.88470	323.05911	1572.49463	327.53918	159.07346	1521.46521	268.52188	157.11984	1558.02515	405.67188	37.72285	1441.39844	685.90167	1713.07727	-3102.08691	1972.94031	1023.87360	-3140.80615	2012.54980	1022.14453						 
256	2.550	1354.36548	664.77649	1672.85046	1459.16077	709.54938	1680.06299	1396.40637	554.05170	1631.97986	1507.61719	598.56561	1638.65503	1429.62585	528.67804	1431.52026	1442.18481	502.75739	1137.70349	1420.46753	673.98901	1370.26270	1416.44031	723.48901	1216.33704	1512.85242	483.13974	1236.85535	1263.91443	603.64447	1397.55872	1186.18713	569.20667	1210.68091	1192.15881	557.58044	1060.11560	1166.27588	593.13348	952.41150	1181.87256	672.69916	836.54272	1159.73096	616.66925	832.46570	1150.30371	664.76196	761.53369	1574.35718	616.73627	1397.50781	1684.18555	579.92456	1197.95337	1689.52576	591.49780	1073.05688	1719.39075	638.72388	961.42426	1697.03137	735.95807	859.15564	1738.61157	695.32996	853.56189	1732.61963	743.69006	780.87268	1336.25525	680.57635	934.58325	1551.89673	678.59839	932.58551	1385.06091	492.60678	947.06848	1530.56946	493.90741	950.54663	1280.14978	693.69214	609.72961	1299.92163	709.74542	477.62982	1292.07495	679.51184	289.29608	1348.16516	679.63098	72.95225	1402.93103	638.15771	42.59853	1334.19556	826.29382	40.15813	1615.79138	616.33899	597.69714	1601.07959	608.13495	438.12970	1609.66028	470.19427	325.48413	1572.21411	336.95844	164.25783	1521.20142	277.83963	164.22356	1557.68640	408.99170	39.46487	1439.10803	692.25861	1713.46802	-3101.89819	1973.14197	1023.47491	-3140.61401	2012.44556	1021.94629						 
257	2.560	1352.39868	670.99249	1673.03870	1456.97534	715.88086	1680.41675	1394.27271	560.39020	1632.33289	1505.46106	604.86865	1639.01868	1427.38916	534.94659	1431.95630	1439.87622	508.54254	1138.16089	1418.48315	680.20422	1370.53748	1414.51428	729.45380	1216.51074	1510.53064	489.03931	1237.32898	1261.85913	610.04883	1397.85474	1183.82458	576.42230	1211.06360	1189.46997	565.20038	1060.30310	1163.92126	602.06201	952.90948	1180.24841	682.70026	837.91882	1157.61938	626.88397	833.18225	1148.52246	675.60034	762.48273	1572.52637	622.85620	1398.08630	1681.97217	585.36884	1198.49402	1687.49634	596.40155	1073.66821	1717.63586	642.64246	961.77228	1695.73315	738.91693	858.48260	1737.43872	698.17328	853.53223	1731.53552	745.72046	780.13342	1334.43713	686.09784	934.76172	1550.12244	684.10840	933.15137	1383.31274	498.17685	947.23395	1528.91296	499.29514	950.16260	1278.75220	697.20880	609.42651	1298.82568	712.57263	477.31473	1291.65881	680.76807	289.07443	1348.25708	679.77032	72.85007	1402.97534	638.19440	42.60926	1334.23645	826.51624	40.01473	1615.08057	627.66309	597.69135	1599.74121	621.56482	437.67126	1609.01904	482.92456	327.79257	1571.71155	346.52405	169.28181	1520.54016	287.42487	170.96202	1557.88757	414.72333	42.51204	1436.91321	698.60852	1713.79150	-3101.83618	1973.17883	1023.45410	-3140.70410	2012.56689	1022.00549						 
258	2.570	1349.97546	677.42645	1673.33411	1454.87817	722.21136	1680.65112	1392.19629	566.74072	1632.57324	1503.39075	611.18512	1639.32593	1425.32703	541.11053	1432.36121	1437.77795	514.11053	1138.61963	1416.59851	686.34827	1370.70703	1412.66956	735.29559	1216.56189	1508.35681	494.82227	1237.79688	1259.93445	616.50537	1398.09204	1181.37085	583.81036	1211.28821	1186.81494	572.92352	1060.43091	1161.58154	610.96503	953.29425	1178.54688	692.74286	839.20099	1155.47998	637.19305	833.86115	1146.81104	686.77716	763.76599	1570.48291	628.81189	1398.40430	1679.77466	590.52386	1198.84143	1685.43323	601.17572	1074.15320	1715.96252	646.51111	962.06683	1694.51563	741.76373	857.74243	1735.97473	700.90729	853.20532	1730.54163	747.77478	779.47205	1332.67737	691.39612	934.96350	1548.32898	689.35754	933.44733	1381.81885	503.45718	947.34509	1527.46033	504.56903	949.74536	1277.45325	700.72333	609.20703	1297.80847	715.32166	476.90408	1291.10144	682.40552	288.92505	1348.41687	679.95050	73.11507	1403.02454	638.23492	42.66389	1334.23767	826.63519	39.85701	1613.81677	638.88123	597.42688	1599.42297	635.83386	438.32654	1608.51990	495.73123	330.06467	1570.65894	356.24875	174.05389	1519.21240	297.57257	176.17526	1558.81409	422.96909	46.12389	1434.86316	704.94153	1714.04834	-3101.91919	1973.09399	1023.36768	-3140.63428	2012.57275	1022.00165						 
